<![CDATA[<mxfile host="app.diagrams.net" modified="2023-04-10T12:00:00.000Z" agent="5.0 (Windows NT 10.0; Win64; x64) AppleWebKit/537.36 (KHTML, like Gecko) Chrome/91.0.4472.124 Safari/537.36" etag="your-etag" version="14.7.7" type="device">
  <diagram id="heat_vulnerability_mapping" name="Heat Vulnerability Mapping">
    <mxGraphModel dx="1422" dy="798" grid="1" gridSize="10" guides="1" tooltips="1" connect="1" arrows="1" fold="1" page="1" pageScale="1" pageWidth="850" pageHeight="1100" math="0" shadow="0">
      <root>
        <mxCell id="0" />
        <mxCell id="1" parent="0" />
        
        <!-- Main Title -->
        <mxCell id="2" value="Heat Vulnerability Mapping" style="rounded=1;whiteSpace=wrap;html=1;fontSize=16;fontStyle=1;fillColor=#00a3a3;strokeColor=#006666;fontColor=#FFFFFF;align=center;verticalAlign=middle;spacingLeft=0;spacingRight=0;spacingTop=0;spacingBottom=0;arcSize=5;" parent="1" vertex="1">
          <mxGeometry x="120" y="40" width="600" height="50" as="geometry" />
        </mxCell>
        
        <!-- Data Categories Box -->
        <mxCell id="3" value="Data Categories" style="swimlane;fontStyle=1;childLayout=stackLayout;horizontal=1;startSize=30;horizontalStack=0;resizeParent=1;resizeParentMax=0;resizeLast=0;collapsible=0;marginBottom=0;fontSize=14;fillColor=#f5f5f5;strokeColor=#666666;fontColor=#333333;" parent="1" vertex="1">
          <mxGeometry x="120" y="120" width="600" height="190" as="geometry">
            <mxRectangle x="120" y="120" width="140" height="30" as="alternateBounds" />
          </mxGeometry>
        </mxCell>
        
        <!-- Environmental Data -->
        <mxCell id="4" value="Environmental" style="swimlane;fontStyle=1;childLayout=stackLayout;horizontal=1;startSize=30;horizontalStack=0;resizeParent=1;resizeParentMax=0;resizeLast=0;collapsible=0;marginBottom=0;fontSize=13;fillColor=#dae8fc;strokeColor=#6c8ebf;" parent="3" vertex="1">
          <mxGeometry y="30" width="600" height="50" as="geometry" />
        </mxCell>
        <mxCell id="5" value="LST • UTFVI • NDVI • NDBI" style="text;strokeColor=none;fillColor=none;align=center;verticalAlign=middle;spacingLeft=4;spacingRight=4;overflow=hidden;points=[[0,0.5],[1,0.5]];portConstraint=eastwest;rotatable=0;fontSize=12;" parent="4" vertex="1">
          <mxGeometry y="30" width="600" height="20" as="geometry" />
        </mxCell>
        
        <!-- Socioeconomic Data -->
        <mxCell id="6" value="Socioeconomic" style="swimlane;fontStyle=1;childLayout=stackLayout;horizontal=1;startSize=30;horizontalStack=0;resizeParent=1;resizeParentMax=0;resizeLast=0;collapsible=0;marginBottom=0;fontSize=13;fillColor=#fff2cc;strokeColor=#d6b656;" parent="3" vertex="1">
          <mxGeometry y="80" width="600" height="50" as="geometry" />
        </mxCell>
        <mxCell id="7" value="GCRO: Crowded Dwellings • Without Piped Water • Using Public Healthcare • Without Medical Insurance • At Risk of Hunger • School Feeding Schemes" style="text;strokeColor=none;fillColor=none;align=center;verticalAlign=middle;spacingLeft=4;spacingRight=4;overflow=hidden;points=[[0,0.5],[1,0.5]];portConstraint=eastwest;rotatable=0;fontSize=12;" parent="6" vertex="1">
          <mxGeometry y="30" width="600" height="20" as="geometry" />
        </mxCell>
        
        <!-- Health Indicators -->
        <mxCell id="8" value="Health Indicators" style="swimlane;fontStyle=1;childLayout=stackLayout;horizontal=1;startSize=30;horizontalStack=0;resizeParent=1;resizeParentMax=0;resizeLast=0;collapsible=0;marginBottom=0;fontSize=13;fillColor=#f8cecc;strokeColor=#b85450;" parent="3" vertex="1">
          <mxGeometry y="130" width="600" height="60" as="geometry" />
        </mxCell>
        <mxCell id="9" value="GCRO: Poor Health • Unable to Access Healthcare • Diabetes • Heart Disease • Hypertension • HIV • TB • COVID-19" style="text;strokeColor=none;fillColor=none;align=center;verticalAlign=middle;spacingLeft=4;spacingRight=4;overflow=hidden;points=[[0,0.5],[1,0.5]];portConstraint=eastwest;rotatable=0;fontSize=12;" parent="8" vertex="1">
          <mxGeometry y="30" width="600" height="30" as="geometry" />
        </mxCell>
        
        <!-- Key Activities -->
        <mxCell id="10" value="Key Activities" style="swimlane;fontStyle=1;childLayout=stackLayout;horizontal=1;startSize=30;horizontalStack=0;resizeParent=1;resizeParentMax=0;resizeLast=0;collapsible=0;marginBottom=0;fontSize=14;fillColor=#ffe6cc;strokeColor=#d79b00;" parent="1" vertex="1">
          <mxGeometry x="120" y="330" width="280" height="110" as="geometry" />
        </mxCell>
        <mxCell id="11" value="• Integration of data sources&#xa;• Spatial vulnerability assessment&#xa;• Coverage: 135 wards across Johannesburg" style="text;strokeColor=none;fillColor=none;align=left;verticalAlign=middle;spacingLeft=4;spacingRight=4;overflow=hidden;points=[[0,0.5],[1,0.5]];portConstraint=eastwest;rotatable=0;fontSize=12;" parent="10" vertex="1">
          <mxGeometry y="30" width="280" height="80" as="geometry" />
        </mxCell>
        
        <!-- Expected Outcomes -->
        <mxCell id="12" value="Expected Outcomes" style="swimlane;fontStyle=1;childLayout=stackLayout;horizontal=1;startSize=30;horizontalStack=0;resizeParent=1;resizeParentMax=0;resizeLast=0;collapsible=0;marginBottom=0;fontSize=14;fillColor=#d5e8d4;strokeColor=#82b366;" parent="1" vertex="1">
          <mxGeometry x="420" y="330" width="300" height="110" as="geometry" />
        </mxCell>
        <mxCell id="13" value="• Detailed vulnerability maps&#xa;• Quantification of spatial vulnerability patterns" style="text;strokeColor=none;fillColor=none;align=left;verticalAlign=middle;spacingLeft=4;spacingRight=4;overflow=hidden;points=[[0,0.5],[1,0.5]];portConstraint=eastwest;rotatable=0;fontSize=12;" parent="12" vertex="1">
          <mxGeometry y="30" width="300" height="80" as="geometry" />
        </mxCell>
        
        <!-- References -->
        <mxCell id="14" value="References: Cutter et al. (2003) | Niu et al. (2021) | Parker et al. (2025)" style="text;html=1;strokeColor=none;fillColor=none;align=center;verticalAlign=middle;whiteSpace=wrap;rounded=0;fontSize=12;" parent="1" vertex="1">
          <mxGeometry x="120" y="460" width="600" height="20" as="geometry" />
        </mxCell>
        
        <!-- Acronym Explanations -->
        <mxCell id="15" value="Acronyms: LST = Land Surface Temperature, UTFVI = Urban Thermal Field Variance Index, NDVI = Normalized Difference Vegetation Index, NDBI = Normalized Difference Built-up Index, GCRO = Gauteng City-Region Observatory" style="text;html=1;strokeColor=#666666;fillColor=#f5f5f5;align=left;verticalAlign=middle;whiteSpace=wrap;rounded=1;fontSize=10;fontColor=#333333;" parent="1" vertex="1">
          <mxGeometry x="120" y="490" width="600" height="30" as="geometry" />
        </mxCell>
      </root>
    </mxGraphModel>
  </diagram>
</mxfile>]]>
